<svg width="80" height="80" viewBox="0 0 80 80" fill="none" xmlns="http://www.w3.org/2000/svg">
<circle cx="40" cy="40" r="40" fill="#161616"/>
<path d="M40 80C17.9259 80 0 62.0741 0 40C0 17.9259 17.9259 0 40 0C62.0741 0 80 17.9259 80 40C80 62.0741 62.0741 80 40 80ZM40 0.493827C18.2222 0.493827 0.493827 18.2222 0.493827 40C0.493827 61.7778 18.2222 79.5062 40 79.5062C61.7778 79.5062 79.5062 61.7778 79.5062 40C79.5062 18.2222 61.7778 0.493827 40 0.493827Z" fill="#EAD384"/>
<path d="M39.901 17.5308L37.7776 18.6666L38.1726 16.2963L36.4442 14.6173L38.8146 14.2716L39.901 12.0987L40.9875 14.2716L43.3578 14.6173L41.6294 16.2963L42.0245 18.6666L39.901 17.5308Z" fill="#EAD384"/>
<path d="M66.6666 45.284L64.8394 46.2716L65.1851 44.247L63.753 42.8149L65.7283 42.5186L66.6666 40.6914L67.5555 42.5186L69.5802 42.8149L68.0987 44.247L68.4444 46.2716L66.6666 45.284Z" fill="#EAD384"/>
<path d="M13.1357 45.284L11.3579 46.2716L11.7036 44.247L10.2221 42.8149L12.2468 42.5186L13.1357 40.6914L14.0246 42.5186L16.0493 42.8149L14.6172 44.247L14.9628 46.2716L13.1357 45.284Z" fill="#EAD384"/>
<path d="M66.4693 61.3827C64.3952 63.9506 61.9261 66.2222 59.21 68.0987L63.9508 68.8395C67.21 66.1234 69.9754 62.9136 72.1977 59.2592L66.4693 61.3827Z" fill="#EAD384"/>
<path d="M44.395 6.22222C48.7407 6.76543 52.8395 8.14814 56.5432 10.2222L54.8148 5.53086C50.2716 3.55555 45.2345 2.46913 40 2.46913C39.9012 2.46913 39.8518 2.46913 39.7531 2.46913L44.395 6.22222Z" fill="#EAD384"/>
<path d="M2.76535 35.5062L5.97523 39.4568C6.02461 35.1112 6.9135 30.963 8.49375 27.1605L7.65424 21.0865C5.08634 25.3828 3.35794 30.2716 2.76535 35.5062Z" fill="#EAD384"/>
<path d="M12.0497 59.4568L6.76572 57.3828C9.23485 62.0741 12.6423 66.2223 16.7904 69.4815L21.7781 68.7902C17.9262 66.321 14.6176 63.1605 12.0497 59.4568Z" fill="#EAD384"/>
<path d="M73.7286 44.7902C73.1361 49.0865 71.704 53.1359 69.6299 56.7408L74.3706 55.0124C76.3953 50.4198 77.4817 45.3828 77.5311 40.0988L73.7286 44.7902Z" fill="#EAD384"/>
<path d="M71.4567 19.5556L70.5678 24.9877C72.6913 29.284 73.9259 34.1235 74.074 39.2099L77.2345 35.2593C76.4938 29.5309 74.4691 24.1976 71.4567 19.5556Z" fill="#EAD384"/>
<path d="M61.1361 13.284C63.7534 15.358 66.0744 17.8272 68.0003 20.5432L68.7411 15.8519C66.025 12.5926 62.7657 9.82717 59.062 7.65433L61.1361 13.284Z" fill="#EAD384"/>
<path d="M54.7653 70.7161C51.7035 72.1975 48.3949 73.2346 44.8887 73.7284L40.148 77.5309C47.5554 77.4815 54.4196 75.3087 60.2467 71.605L54.7653 70.7161Z" fill="#EAD384"/>
<path d="M11.062 22.074C13.1361 18.716 15.8027 15.753 18.8645 13.3333L20.2472 8.09872C16.4447 10.4691 13.0867 13.4814 10.3706 17.037L11.062 22.074Z" fill="#EAD384"/>
<path d="M34.9629 2.81482C31.1605 3.30865 27.5555 4.39507 24.1975 5.97531L23.0123 10.5185C27.7037 7.80247 33.1358 6.17285 38.8642 5.97531L34.9629 2.81482Z" fill="#EAD384"/>
<path d="M9.33341 54.8642C7.85192 51.8518 6.81489 48.5432 6.27168 45.0864L2.46921 40.3457C2.51859 44.8395 3.3581 49.1358 4.83958 53.0864L9.33341 54.8642Z" fill="#EAD384"/>
<path d="M39.2593 74.0741C34.8148 73.9754 30.5679 73.0371 26.7161 71.4075L20.7408 72.1976C25.0864 74.8149 30.0741 76.5927 35.3087 77.2346L39.2593 74.0741Z" fill="#EAD384"/>
<path d="M22.6285 52.4151H21.3842C21.3615 52.2541 21.3151 52.1111 21.245 51.9861C21.1749 51.8592 21.085 51.7512 20.9751 51.6622C20.8653 51.5732 20.7384 51.505 20.5944 51.4577C20.4524 51.4103 20.298 51.3867 20.1314 51.3867C19.8302 51.3867 19.5679 51.4615 19.3444 51.6111C19.121 51.7588 18.9477 51.9747 18.8246 52.2588C18.7015 52.541 18.6399 52.8838 18.6399 53.2872C18.6399 53.702 18.7015 54.0505 18.8246 54.3327C18.9496 54.6149 19.1238 54.8279 19.3473 54.9719C19.5708 55.1158 19.8293 55.1878 20.1229 55.1878C20.2876 55.1878 20.4401 55.166 20.5802 55.1225C20.7223 55.0789 20.8482 55.0154 20.9581 54.9321C21.0679 54.8469 21.1588 54.7437 21.2308 54.6225C21.3047 54.5012 21.3558 54.363 21.3842 54.2077L22.6285 54.2134C22.5963 54.4804 22.5159 54.738 22.3871 54.9861C22.2602 55.2323 22.0888 55.4529 21.8729 55.648C21.6588 55.8412 21.4032 55.9946 21.1058 56.1083C20.8104 56.22 20.4761 56.2759 20.103 56.2759C19.584 56.2759 19.12 56.1584 18.7109 55.9236C18.3037 55.6887 17.9818 55.3488 17.745 54.9037C17.5102 54.4586 17.3927 53.9198 17.3927 53.2872C17.3927 52.6528 17.5121 52.113 17.7507 51.6679C17.9893 51.2228 18.3132 50.8838 18.7223 50.6509C19.1314 50.416 19.5916 50.2986 20.103 50.2986C20.4401 50.2986 20.7526 50.3459 21.0405 50.4406C21.3302 50.5353 21.5869 50.6736 21.8104 50.8554C22.0338 51.0353 22.2157 51.256 22.3558 51.5173C22.4979 51.7787 22.5888 52.0779 22.6285 52.4151ZM28.8572 53.2872C28.8572 53.9217 28.737 54.4615 28.4964 54.9065C28.2578 55.3516 27.932 55.6916 27.5192 55.9264C27.1082 56.1594 26.6461 56.2759 26.1328 56.2759C25.6158 56.2759 25.1517 56.1584 24.7408 55.9236C24.3298 55.6887 24.005 55.3488 23.7663 54.9037C23.5277 54.4586 23.4084 53.9198 23.4084 53.2872C23.4084 52.6528 23.5277 52.113 23.7663 51.6679C24.005 51.2228 24.3298 50.8838 24.7408 50.6509C25.1517 50.416 25.6158 50.2986 26.1328 50.2986C26.6461 50.2986 27.1082 50.416 27.5192 50.6509C27.932 50.8838 28.2578 51.2228 28.4964 51.6679C28.737 52.113 28.8572 52.6528 28.8572 53.2872ZM27.6101 53.2872C27.6101 52.8762 27.5485 52.5297 27.4254 52.2475C27.3042 51.9653 27.1328 51.7512 26.9112 51.6054C26.6896 51.4596 26.4302 51.3867 26.1328 51.3867C25.8355 51.3867 25.576 51.4596 25.3544 51.6054C25.1328 51.7512 24.9605 51.9653 24.8373 52.2475C24.7161 52.5297 24.6555 52.8762 24.6555 53.2872C24.6555 53.6982 24.7161 54.0448 24.8373 54.327C24.9605 54.6092 25.1328 54.8232 25.3544 54.969C25.576 55.1149 25.8355 55.1878 26.1328 55.1878C26.4302 55.1878 26.6896 55.1149 26.9112 54.969C27.1328 54.8232 27.3042 54.6092 27.4254 54.327C27.5485 54.0448 27.6101 53.6982 27.6101 53.2872ZM29.7685 50.3781H31.2855L32.8878 54.2872H32.956L34.5582 50.3781H36.0753V56.1963H34.8821V52.4094H34.8338L33.3281 56.1679H32.5156L31.0099 52.3952H30.9616V56.1963H29.7685V50.3781ZM37.0888 56.1963V50.3781H39.3842C39.8255 50.3781 40.2015 50.4624 40.5121 50.631C40.8227 50.7976 41.0594 51.0297 41.2223 51.327C41.3871 51.6225 41.4694 51.9634 41.4694 52.3497C41.4694 52.7361 41.3861 53.077 41.2194 53.3725C41.0528 53.6679 40.8113 53.898 40.495 54.0628C40.1806 54.2276 39.7999 54.31 39.353 54.31H37.8899V53.3242H39.1541C39.3909 53.3242 39.5859 53.2834 39.7393 53.202C39.8946 53.1187 40.0102 53.0041 40.0859 52.8583C40.1636 52.7105 40.2024 52.541 40.2024 52.3497C40.2024 52.1565 40.1636 51.988 40.0859 51.844C40.0102 51.6982 39.8946 51.5855 39.7393 51.506C39.584 51.4245 39.3871 51.3838 39.1484 51.3838H38.3189V56.1963H37.0888ZM42.2685 56.1963V50.3781H43.4986V55.1821H45.9929V56.1963H42.2685ZM46.8075 56.1963V50.3781H50.728V51.3923H48.0376V52.7787H50.5263V53.7929H48.0376V55.1821H50.7393V56.1963H46.8075ZM51.4844 51.3923V50.3781H56.2628V51.3923H54.4815V56.1963H53.2656V51.3923H51.4844ZM57.0497 56.1963V50.3781H60.9702V51.3923H58.2798V52.7787H60.7685V53.7929H58.2798V55.1821H60.9815V56.1963H57.0497Z" fill="white"/>
<path d="M33.9104 38.714C33.8864 38.738 33.8804 38.762 33.8924 38.786C33.9044 38.81 33.9284 38.822 33.9644 38.822H38.2844C38.3444 38.822 38.3924 38.846 38.4284 38.894C38.4764 38.93 38.5004 38.978 38.5004 39.038V40.784C38.5004 40.844 38.4764 40.898 38.4284 40.946C38.3924 40.982 38.3444 41 38.2844 41H30.9044C30.8444 41 30.7904 40.982 30.7424 40.946C30.7064 40.898 30.6884 40.844 30.6884 40.784V39.038C30.6884 38.942 30.7244 38.858 30.7964 38.786C32.2484 37.118 33.4544 35.672 34.4144 34.448C35.2784 33.332 35.7104 32.45 35.7104 31.802C35.7104 31.382 35.5964 31.052 35.3684 30.812C35.1404 30.56 34.8344 30.434 34.4504 30.434C34.0784 30.434 33.7724 30.56 33.5324 30.812C33.3044 31.052 33.1904 31.37 33.1904 31.766V32.36C33.1904 32.42 33.1664 32.474 33.1184 32.522C33.0824 32.558 33.0344 32.576 32.9744 32.576H30.8324C30.7724 32.576 30.7184 32.558 30.6704 32.522C30.6344 32.474 30.6164 32.42 30.6164 32.36V31.514C30.6764 30.53 31.0664 29.744 31.7864 29.156C32.5064 28.556 33.4124 28.256 34.5044 28.256C35.2604 28.256 35.9204 28.406 36.4844 28.706C37.0604 29.006 37.5044 29.426 37.8164 29.966C38.1284 30.506 38.2844 31.112 38.2844 31.784C38.2844 32.348 38.1704 32.906 37.9424 33.458C37.7144 33.998 37.3664 34.58 36.8984 35.204C36.5984 35.6 36.2384 36.044 35.8184 36.536C35.3984 37.028 34.9784 37.508 34.5584 37.976L33.9104 38.714ZM41.0928 41C41.0328 41 40.9788 40.982 40.9308 40.946C40.8948 40.898 40.8768 40.844 40.8768 40.784V28.616C40.8768 28.556 40.8948 28.508 40.9308 28.472C40.9788 28.424 41.0328 28.4 41.0928 28.4H43.1988C43.2588 28.4 43.3068 28.424 43.3428 28.472C43.3908 28.508 43.4148 28.556 43.4148 28.616V33.404C43.4148 33.44 43.4268 33.464 43.4508 33.476C43.4868 33.488 43.5108 33.476 43.5228 33.44L46.7448 28.544C46.8048 28.448 46.8888 28.4 46.9968 28.4H49.3188C49.4028 28.4 49.4568 28.424 49.4808 28.472C49.5168 28.52 49.5108 28.58 49.4628 28.652L46.1328 33.818C46.1208 33.854 46.1208 33.896 46.1328 33.944L49.6608 40.748C49.6848 40.796 49.6968 40.832 49.6968 40.856C49.6968 40.952 49.6308 41 49.4988 41H47.1948C47.0868 41 47.0028 40.946 46.9428 40.838L44.3868 35.906C44.3748 35.87 44.3568 35.852 44.3328 35.852C44.3088 35.852 44.2848 35.87 44.2608 35.906L43.4508 37.076C43.4268 37.124 43.4148 37.16 43.4148 37.184V40.784C43.4148 40.844 43.3908 40.898 43.3428 40.946C43.3068 40.982 43.2588 41 43.1988 41H41.0928Z" fill="white"/>
</svg>
