<svg width="40" height="40" viewBox="0 0 40 40" fill="none" xmlns="http://www.w3.org/2000/svg">
<path d="M24.1778 19H15.8222C12.0604 19 9 21.9213 9 25.5121V38.6976C9 39.4168 9.61087 40 10.3644 40H29.6356C30.3891 40 31 39.4169 31 38.6976V25.5121C31 21.9213 27.9396 19 24.1778 19Z" fill="white"/>
<path d="M19.7 1.5C15.4542 1.5 12 4.9542 12 9.20009C12 12.08 13.5895 14.5953 15.937 15.9158C17.0504 16.5422 18.3341 16.9001 19.7 16.9001C21.0659 16.9001 22.3496 16.5422 23.463 15.9158C25.8106 14.5953 27.4 12.08 27.4 9.20009C27.4 4.95429 23.9458 1.5 19.7 1.5Z" fill="white"/>
</svg>
