<svg width="40" height="40" viewBox="0 0 40 40" fill="none" xmlns="http://www.w3.org/2000/svg">
<g clip-path="url(#clip0_37_1288)">
<path d="M23.5351 17.7144C25.4878 19.6671 25.4878 22.833 23.5351 24.7857C21.5824 26.7384 18.4165 26.7384 16.4638 24.7857C14.5111 22.833 14.5111 19.6671 16.4638 17.7144C18.4165 15.7617 21.5824 15.7617 23.5351 17.7144Z" fill="white"/>
<path d="M34.9999 7.49962H31.5452L29.0439 2.49945H10.9537L8.45482 7.50208L5.00501 7.50822C2.2547 7.51314 0.0158049 9.75441 0.0134301 12.5059L0 32.4992C0 35.2569 2.2425 37.5006 5.00017 37.5006H34.9999C37.7576 37.5006 40.0001 35.2581 40.0001 32.5004V12.4997C40 9.74212 37.7575 7.49962 34.9999 7.49962ZM19.9994 31.2503C14.4853 31.2503 9.99904 26.7641 9.99904 21.25C9.99904 15.7359 14.4853 11.2497 19.9994 11.2497C25.5135 11.2497 29.9997 15.7359 29.9997 21.25C29.9997 26.7641 25.5135 31.2503 19.9994 31.2503Z" fill="white"/>
</g>
<defs>
<clipPath id="clip0_37_1288">
<rect width="40" height="40" fill="white"/>
</clipPath>
</defs>
</svg>
