<svg width="40" height="40" viewBox="0 0 40 40" fill="none" xmlns="http://www.w3.org/2000/svg">
<path d="M20 0C31.0275 0 40 8.9725 40 20C40 23.845 38.9225 27.5375 36.88 30.72L39.91 38.285C40.095 38.75 39.9875 39.28 39.6325 39.635C39.395 39.8725 39.075 40 38.75 40C38.5925 40 38.4375 39.97 38.285 39.91L30.72 36.88C27.5375 38.9225 23.845 40 20 40C8.9725 40 0 31.0275 0 20C0 8.9725 8.9725 0 20 0ZM20 37.5C23.565 37.5 26.9775 36.445 29.865 34.4475C30.075 34.3 30.325 34.225 30.575 34.225C30.7325 34.225 30.89 34.255 31.04 34.315L36.505 36.505L34.315 31.04C34.16 30.65 34.21 30.2075 34.4475 29.865C36.445 26.9775 37.5 23.565 37.5 20C37.5 10.35 29.65 2.5 20 2.5C10.35 2.5 2.5 10.35 2.5 20C2.5 29.65 10.35 37.5 20 37.5Z" fill="white"/>
</svg>
