<svg width="40" height="40" viewBox="0 0 40 40" fill="none" xmlns="http://www.w3.org/2000/svg">
<g clip-path="url(#clip0_30_448)">
<path d="M2.06687 40.0001C1.53998 40.0001 1.01308 39.7997 0.612754 39.3964C-0.190905 38.5927 -0.190905 37.2898 0.612754 36.4861L36.4961 0.602744C37.2998 -0.200915 38.6027 -0.200915 39.4064 0.602744C40.21 1.4064 40.21 2.70933 39.4064 3.5135L3.52351 39.3964C3.12017 39.7972 2.59327 40.0001 2.06687 40.0001Z" fill="white"/>
<path d="M37.9527 40.0001C37.4258 40.0001 36.8995 39.7997 36.4986 39.3964L0.612754 3.5135C-0.190905 2.70933 -0.190905 1.4064 0.612754 0.602744C1.41641 -0.200915 2.71934 -0.200915 3.52351 0.602744L39.4064 36.4861C40.21 37.2898 40.21 38.5927 39.4064 39.3964C39.003 39.7972 38.4766 40.0001 37.9527 40.0001Z" fill="white"/>
</g>
<defs>
<clipPath id="clip0_30_448">
<rect width="40" height="40" fill="white"/>
</clipPath>
</defs>
</svg>
