<svg width="40" height="40" viewBox="0 0 40 40" fill="none" xmlns="http://www.w3.org/2000/svg">
<path d="M33.8791 18.4647C33.2074 15.405 30.7562 13.0414 27.681 12.4741C27.0065 8.84796 23.819 6.09375 20 6.09375C16.1887 6.09375 13.006 8.83759 12.323 12.4533C5.82581 11.5213 0 16.5698 0 23.125C0 29.0698 4.83643 33.9062 10.7812 33.9062H32.1875C36.4954 33.9062 40 30.4016 40 26.0938C40 22.3679 37.4005 19.2377 33.8791 18.4647ZM32.1875 30.7812H10.7812C6.55975 30.7812 3.125 27.3465 3.125 23.125C3.125 17.8958 8.29193 14.176 13.2648 15.8804C14.3259 16.2445 15.4166 15.401 15.3293 14.2804C15.112 11.5152 17.3019 9.21875 20 9.21875C22.5848 9.21875 24.6875 11.3214 24.6875 13.9062C24.6875 14.7693 25.387 15.4688 26.25 15.4688C28.7552 15.4688 30.8115 17.4268 30.9317 19.9265C30.9702 20.7306 31.6135 21.3736 32.4173 21.412C34.917 21.5323 36.875 23.5886 36.875 26.0938C36.875 28.6786 34.7723 30.7812 32.1875 30.7812Z" fill="white"/>
</svg>
