<svg width="40" height="40" viewBox="0 0 40 40" fill="none" xmlns="http://www.w3.org/2000/svg">
<path d="M21.5622 17.2486L3.99175 3.29336C3.13925 2.86393 2.12174 2.91047 1.30943 3.40336C0.492887 3.89413 0 4.7699 0 5.70914V33.6281C0 34.5652 0.492887 35.4389 1.30943 35.9318C1.74943 36.1983 2.24866 36.3337 2.75424 36.3337C3.17944 36.3337 3.60252 36.2364 3.99387 36.0418L21.5643 22.0823C22.4105 21.2869 23.079 20.6904 23.079 19.6644C23.079 18.6384 22.5099 18.0863 21.5622 17.2486Z" fill="white"/>
<path d="M38.4855 17.2486L20.915 3.29336C20.0625 2.86393 19.0429 2.91047 18.2306 3.40336C17.414 3.89413 16.9211 4.7699 16.9211 5.70914V33.6281C16.9211 34.5652 17.414 35.4389 18.2306 35.9318C18.6706 36.1983 19.1698 36.3337 19.6754 36.3337C20.1006 36.3337 20.5237 36.2364 20.915 36.0418L38.4855 22.0823C39.3316 21.2869 40.0001 20.6904 40.0001 19.6644C40.0001 18.6384 39.4332 18.0863 38.4855 17.2486Z" fill="white"/>
</svg>
