<svg width="40" height="40" viewBox="0 0 40 40" fill="none" xmlns="http://www.w3.org/2000/svg">
<path d="M20 4.6875C20.6476 4.6875 21.1719 4.16321 21.1719 3.51562V1.17188C21.1719 0.524292 20.6476 0 20 0C19.3524 0 18.8281 0.524292 18.8281 1.17188V3.51562C18.8281 4.16321 19.3524 4.6875 20 4.6875Z" fill="white"/>
<path d="M25.5161 6.68793L27.8598 4.34418C28.3176 3.88641 28.3176 3.14484 27.8598 2.68707C27.402 2.22931 26.6605 2.22931 26.2027 2.68707L23.8589 5.03082C23.4012 5.48859 23.4012 6.23016 23.8589 6.68793C24.3167 7.14569 25.0583 7.14569 25.5161 6.68793Z" fill="white"/>
<path d="M14.4839 6.68793C14.9417 7.14569 15.6833 7.14569 16.1411 6.68793C16.5988 6.23016 16.5988 5.48859 16.1411 5.03082L13.7973 2.68707C13.3395 2.22931 12.598 2.22931 12.1402 2.68707C11.6824 3.14484 11.6824 3.88641 12.1402 4.34418L14.4839 6.68793Z" fill="white"/>
<path d="M10.5469 16.5625C10.5469 13.9774 8.44452 11.875 5.85938 11.875C3.27423 11.875 1.17188 13.9774 1.17188 16.5625C1.17188 19.1476 3.27423 21.25 5.85938 21.25C8.44452 21.25 10.5469 19.1476 10.5469 16.5625Z" fill="white"/>
<path d="M20 9.45312C18.0615 9.45312 16.4844 11.0303 16.4844 12.9688C16.4844 17.4915 12.7258 21.25 8.20312 21.25H5.85938C2.62878 21.25 0 23.8788 0 27.1094V38.8281C0 39.4757 0.524292 40 1.17188 40H10.5469C11.1935 40 11.7032 39.4757 11.7032 38.8293L11.7099 27.8705C18.5535 26.2579 23.5156 20.0961 23.5156 12.9688C23.5156 11.0303 21.9385 9.45312 20 9.45312Z" fill="white"/>
<path d="M38.8281 16.5625C38.8281 13.9774 36.7258 11.875 34.1406 11.875C31.5555 11.875 29.4531 13.9774 29.4531 16.5625C29.4531 19.1476 31.5555 21.25 34.1406 21.25C36.7258 21.25 38.8281 19.1476 38.8281 16.5625Z" fill="white"/>
<path d="M34.1406 21.2501H31.7968C29.1021 21.2501 26.6491 19.8484 25.1528 17.8354C24.4671 20.2549 23.2726 22.4506 21.6775 24.3308C23.5461 25.9803 25.855 27.2895 28.2897 27.8693L28.2968 38.8294C28.2968 39.4758 28.8064 40.0001 29.4531 40.0001H38.8281C39.4756 40.0001 39.9999 39.4758 39.9999 38.8282V27.1094C39.9999 23.8788 37.3712 21.2501 34.1406 21.2501Z" fill="white"/>
</svg>
