<svg width="40" height="40" viewBox="0 0 40 40" fill="none" xmlns="http://www.w3.org/2000/svg">
<path d="M34.14 5.86003L31.32 8.68002C34.2 11.58 36 15.58 36 20C36 28.84 28.84 36 20 36C11.1599 36 4.00003 28.84 4.00003 20C4.00003 11.84 10.1001 5.11996 18 4.14V8.17996C12.32 9.13996 7.99996 14.06 7.99996 20C7.99996 26.6199 13.38 31.9999 20 31.9999C26.6199 31.9999 31.9999 26.6199 31.9999 20C31.9999 16.68 30.66 13.68 28.4799 11.52L25.6599 14.34C27.0999 15.8 27.9999 17.8 27.9999 20C27.9999 24.42 24.4199 27.9999 20 27.9999C15.58 27.9999 12 24.42 12 20C12 16.28 14.56 13.1799 18 12.2799V16.5599C16.8 17.2599 16 18.5199 16 19.9999C16 22.1999 17.8 23.9999 20 23.9999C22.2001 23.9999 24 22.2 24 20C24 18.5199 23.2 17.24 22 16.56V0H20C8.95996 0 0 8.95996 0 20C0 31.0399 8.95996 39.9999 20 39.9999C31.0399 39.9999 39.9999 31.0399 39.9999 20C40 14.48 37.7599 9.47999 34.14 5.86003Z" fill="white"/>
</svg>
