<svg width="40" height="40" viewBox="0 0 40 40" fill="none" xmlns="http://www.w3.org/2000/svg">
<path d="M37.1651 5.62514C35.2751 3.77957 32.6638 2.85718 29.3301 2.85718C28.4075 2.85718 27.466 3.01714 26.5064 3.3369C25.5464 3.6569 24.6533 4.08862 23.8282 4.63176C23.002 5.17473 22.2919 5.68463 21.6962 6.16068C21.1013 6.63689 20.5356 7.14296 20 7.67851C19.4641 7.14296 18.8986 6.63689 18.3036 6.16068C17.7082 5.68463 16.9978 5.17504 16.1717 4.63176C15.3458 4.08839 14.4529 3.65698 13.4931 3.3369C12.5335 3.01722 11.5921 2.85718 10.6695 2.85718C7.33606 2.85718 4.72462 3.7798 2.83481 5.62514C0.944987 7.47031 0 10.0297 0 13.3035C0 14.3005 0.175128 15.3277 0.52468 16.3837C0.874232 17.4403 1.27257 18.3407 1.71891 19.0846C2.16518 19.8284 2.67125 20.5538 3.23674 21.2607C3.80223 21.9675 4.2155 22.4547 4.47561 22.7225C4.73596 22.9904 4.94064 23.1841 5.08942 23.3032L19.0178 36.7408C19.2857 37.0086 19.6131 37.1429 19.9999 37.1429C20.3868 37.1429 20.7143 37.0086 20.9821 36.7408L34.8884 23.3474C38.2962 19.9402 39.9999 16.592 39.9999 13.3032C40 10.0291 39.0551 7.47 37.1651 5.62514ZM32.9463 21.2495L20 33.7271L7.03154 21.227C4.24873 18.4449 2.85756 15.8032 2.85756 13.3032C2.85756 12.098 3.01752 11.0339 3.33728 10.1115C3.65728 9.18891 4.06649 8.4558 4.56498 7.91267C5.06354 7.36938 5.66984 6.92703 6.38412 6.58451C7.09878 6.24231 7.79812 6.01159 8.48252 5.8926C9.16693 5.77376 9.89598 5.71426 10.6699 5.71426C11.4436 5.71426 12.2771 5.90378 13.1699 6.28335C14.0626 6.66277 14.8848 7.13898 15.6362 7.71182C16.3878 8.28505 17.0313 8.82067 17.5673 9.31901C18.1029 9.81781 18.5492 10.2751 18.9064 10.6918C19.1741 11.0193 19.539 11.183 20.0001 11.183C20.4614 11.183 20.8258 11.0193 21.0938 10.6918C21.451 10.2751 21.8976 9.81757 22.4332 9.31901C22.9689 8.82067 23.6126 8.28528 24.3638 7.71182C25.1154 7.13898 25.9375 6.66277 26.8307 6.28335C27.7232 5.90386 28.557 5.71426 29.3307 5.71426C30.1045 5.71426 30.8333 5.77376 31.518 5.8926C32.2027 6.01151 32.902 6.24231 33.6164 6.58451C34.3308 6.92695 34.9371 7.36961 35.4355 7.91267C35.934 8.4558 36.3433 9.18891 36.6633 10.1115C36.9828 11.0339 37.1428 12.098 37.1428 13.3032C37.1426 15.8032 35.7441 18.4522 32.9463 21.2495Z" fill="white"/>
</svg>
