<svg width="40" height="40" viewBox="0 0 40 40" fill="none" xmlns="http://www.w3.org/2000/svg">
<path d="M19.9999 8.88896C22.4545 8.88896 24.4444 6.8991 24.4444 4.44448C24.4444 1.98986 22.4545 0 19.9999 0C17.5453 0 15.5554 1.98986 15.5554 4.44448C15.5554 6.8991 17.5453 8.88896 19.9999 8.88896Z" fill="white"/>
<path d="M19.9999 24.4444C22.4545 24.4444 24.4444 22.4546 24.4444 20C24.4444 17.5453 22.4545 15.5555 19.9999 15.5555C17.5453 15.5555 15.5554 17.5453 15.5554 20C15.5554 22.4546 17.5453 24.4444 19.9999 24.4444Z" fill="white"/>
<path d="M19.9999 40C22.4545 40 24.4444 38.0101 24.4444 35.5555C24.4444 33.1009 22.4545 31.111 19.9999 31.111C17.5453 31.111 15.5554 33.1009 15.5554 35.5555C15.5554 38.0101 17.5453 40 19.9999 40Z" fill="white"/>
</svg>
