<svg width="40" height="40" viewBox="0 0 40 40" fill="none" xmlns="http://www.w3.org/2000/svg">
<g clip-path="url(#clip0_30_46)">
<path d="M38.4375 9.60086C34.0051 9.60086 30.3992 5.99484 30.3992 1.5625C30.3992 0.699531 29.6997 0 28.8367 0C27.9737 0 27.2742 0.699531 27.2742 1.5625C27.2742 5.99484 23.6682 9.60086 19.2359 9.60086C18.3729 9.60086 17.6734 10.3004 17.6734 11.1634C17.6734 12.0263 18.3729 12.7259 19.2359 12.7259C23.6682 12.7259 27.2742 16.3318 27.2742 20.7641C27.2742 21.6271 27.9737 22.3266 28.8367 22.3266C29.6997 22.3266 30.3992 21.6271 30.3992 20.7641C30.3992 16.3318 34.0051 12.7259 38.4375 12.7259C39.3005 12.7259 40 12.0263 40 11.1634C40 10.3004 39.3005 9.60086 38.4375 9.60086ZM28.8367 15.0729C27.8809 13.4666 26.5334 12.1191 24.9271 11.1634C26.5334 10.2076 27.8809 8.86008 28.8367 7.25375C29.7925 8.86008 31.14 10.2076 32.7463 11.1634C31.14 12.1191 29.7925 13.4666 28.8367 15.0729ZM35.7287 26.9672C29.3266 30.2247 21.4009 29.1108 16.1451 23.8549C10.9016 18.6116 9.76773 10.688 13.0327 4.27125C13.7169 2.92641 12.2757 1.48602 10.9316 2.17008C-1.27391 8.38055 -3.68251 24.6019 5.8578 34.1422C15.3915 43.6759 31.6149 41.2834 37.8299 29.0684C38.5142 27.7235 37.073 26.2832 35.7287 26.9672ZM8.06749 31.9324C1.3539 25.2188 1.44437 14.1847 8.54015 7.61273C7.15046 13.9123 8.84015 20.9694 13.9354 26.0646C19.0128 31.142 26.0706 32.8529 32.3874 31.4598C25.8498 38.5184 14.8215 38.6863 8.06749 31.9324Z" fill="white"/>
</g>
<defs>
<clipPath id="clip0_30_46">
<rect width="40" height="40" fill="white"/>
</clipPath>
</defs>
</svg>
