<svg width="40" height="40" viewBox="0 0 40 40" fill="none" xmlns="http://www.w3.org/2000/svg">
<path d="M14.3603 3H7.41662C6.2681 3 5.3335 3.93461 5.3335 5.08313V34.2469C5.3335 35.3954 6.2681 36.33 7.41662 36.33H14.3604C15.5089 36.33 16.4435 35.3954 16.4435 34.2469V5.08313C16.4435 3.93461 15.5088 3 14.3603 3Z" fill="white"/>
<path d="M32.3603 3H25.4166C24.2681 3 23.3335 3.93461 23.3335 5.08313V34.2469C23.3335 35.3954 24.2681 36.33 25.4166 36.33H32.3604C33.5089 36.33 34.4435 35.3954 34.4435 34.2469V5.08313C34.4435 3.93461 33.5088 3 32.3603 3Z" fill="white"/>
</svg>
