<svg width="40" height="40" viewBox="0 0 40 40" fill="none" xmlns="http://www.w3.org/2000/svg">
<path d="M33.8791 13.1522C33.2074 10.0925 30.7562 7.72888 27.681 7.16156C27.0065 3.53546 23.819 0.78125 20 0.78125C16.1887 0.78125 13.006 3.52509 12.323 7.14081C5.82581 6.2088 0 11.2573 0 17.8125C0 23.7573 4.83643 28.5938 10.7812 28.5938H32.1875C36.4954 28.5938 40 25.0891 40 20.7812C40 17.0554 37.4005 13.9252 33.8791 13.1522ZM32.1875 25.4688H10.7812C6.55975 25.4688 3.125 22.034 3.125 17.8125C3.125 12.5833 8.29193 8.86383 13.2648 10.5679C14.3265 10.932 15.4172 10.0879 15.3293 8.96729C15.112 6.20941 17.2968 3.90625 20 3.90625C22.5848 3.90625 24.6875 6.00891 24.6875 8.59375C24.6875 9.45679 25.387 10.1562 26.25 10.1562C28.7552 10.1562 30.8115 12.1143 30.9317 14.614C30.9702 15.4181 31.6135 16.0611 32.4173 16.0995C34.917 16.2198 36.875 18.2761 36.875 20.7812C36.875 23.3661 34.7723 25.4688 32.1875 25.4688ZM11.4844 33.7369V37.6562C11.4844 38.5193 10.7849 39.2188 9.92188 39.2188C9.05884 39.2188 8.35938 38.5193 8.35938 37.6562V33.7369C8.35938 32.8738 9.05884 32.1744 9.92188 32.1744C10.7849 32.1744 11.4844 32.8741 11.4844 33.7369ZM21.5625 31.7188V35.6381C21.5625 36.5012 20.863 37.2006 20 37.2006C19.137 37.2006 18.4375 36.5012 18.4375 35.6381V31.7188C18.4375 30.8557 19.137 30.1562 20 30.1562C20.863 30.1562 21.5625 30.8557 21.5625 31.7188ZM31.6406 33.7369V37.6562C31.6406 38.5193 30.9412 39.2188 30.0781 39.2188C29.2151 39.2188 28.5156 38.5193 28.5156 37.6562V33.7369C28.5156 32.8738 29.2151 32.1744 30.0781 32.1744C30.9412 32.1744 31.6406 32.8741 31.6406 33.7369Z" fill="white"/>
</svg>
