<svg width="40" height="40" viewBox="0 0 40 40" fill="none" xmlns="http://www.w3.org/2000/svg">
<path d="M26.6848 6.66693C26.6788 6.66686 26.6729 6.666 26.6669 6.666H17.3568L19.5117 4.51106C20.1626 3.86018 20.1626 2.80482 19.5117 2.15394C18.8609 1.50305 17.8055 1.50305 17.1546 2.15394L12.1544 7.15414C12.1156 7.19297 12.0789 7.23383 12.044 7.27626C12.0282 7.29548 12.0145 7.31579 11.9996 7.33556C11.9818 7.35931 11.9635 7.38251 11.947 7.4072C11.9311 7.43087 11.9174 7.45548 11.9029 7.47978C11.8896 7.50212 11.8755 7.524 11.8631 7.54705C11.8499 7.57181 11.8387 7.59728 11.8268 7.62252C11.8155 7.64658 11.8035 7.67026 11.7932 7.69487C11.7831 7.7194 11.7749 7.74448 11.766 7.76932C11.7564 7.79573 11.7463 7.82183 11.7381 7.84886C11.7306 7.8737 11.7251 7.89902 11.7188 7.92417C11.7118 7.95175 11.7041 7.97894 11.6985 8.00707C11.6927 8.03613 11.6893 8.06551 11.6852 8.09473C11.6817 8.11926 11.677 8.14332 11.6745 8.16817C11.6692 8.22231 11.6663 8.27661 11.6663 8.33099C11.6663 8.33153 11.6663 8.33208 11.6663 8.33263C11.6663 8.33325 11.6663 8.3338 11.6663 8.33442C11.6664 8.38872 11.6692 8.44302 11.6745 8.49709C11.677 8.52193 11.6817 8.54607 11.6852 8.57061C11.6894 8.5999 11.6927 8.6292 11.6985 8.65827C11.7041 8.68639 11.7118 8.71358 11.7188 8.74116C11.7251 8.76632 11.7306 8.79155 11.7381 8.8164C11.7463 8.84343 11.7565 8.86952 11.766 8.89601C11.7749 8.92085 11.7831 8.94586 11.7931 8.97031C11.8034 8.995 11.8154 9.01867 11.8267 9.04273C11.8386 9.06797 11.8499 9.09344 11.8631 9.11813C11.8754 9.14118 11.8895 9.16313 11.9029 9.18547C11.9174 9.20969 11.9311 9.2343 11.947 9.25798C11.9635 9.28274 11.982 9.30603 11.9998 9.32978C12.0146 9.34947 12.0282 9.36978 12.044 9.38892C12.0789 9.43142 12.1156 9.47228 12.1544 9.51111L17.1546 14.5113C17.8055 15.1622 18.8609 15.1622 19.5117 14.5113C20.1626 13.8604 20.1626 12.8051 19.5117 12.1542L17.3568 9.99926H26.6528C26.6573 9.99926 26.6616 9.99996 26.666 9.99996C32.1958 9.99996 36.6664 14.4706 36.6664 20.0004C36.6664 22.4277 35.697 24.7114 34.0006 26.4093C33.35 27.0605 33.3504 28.1158 34.0016 28.7664C34.6528 29.4171 35.7081 29.4166 36.3588 28.7654C38.6723 26.4499 39.9999 23.3222 39.9999 20.0004C39.9999 12.6361 34.0469 6.67709 26.6848 6.66693Z" fill="white"/>
<path d="M28.0004 32.664C28.0181 32.6404 28.0365 32.6172 28.0529 32.5926C28.0688 32.5688 28.0826 32.5442 28.0971 32.5198C28.1104 32.4975 28.1244 32.4757 28.1367 32.4527C28.15 32.4279 28.1612 32.4023 28.1732 32.3769C28.1845 32.353 28.1965 32.3294 28.2066 32.3049C28.2168 32.2803 28.2251 32.2551 28.234 32.2301C28.2434 32.2038 28.2535 32.1779 28.2616 32.151C28.2692 32.126 28.2748 32.1005 28.2811 32.0753C28.288 32.0478 28.2957 32.0207 28.3012 31.9928C28.307 31.9635 28.3105 31.934 28.3148 31.9046C28.3182 31.8803 28.3229 31.8564 28.3253 31.8317C28.3361 31.7224 28.3361 31.6121 28.3253 31.5027C28.3229 31.4781 28.3183 31.4542 28.3148 31.4299C28.3105 31.4004 28.3071 31.3709 28.3013 31.3416C28.2958 31.3136 28.2881 31.2865 28.2812 31.2591C28.2748 31.2338 28.2693 31.2084 28.2617 31.1834C28.2536 31.1565 28.2434 31.1305 28.234 31.1042C28.225 31.0792 28.2168 31.0541 28.2066 31.0294C28.1965 31.0049 28.1845 30.9814 28.1732 30.9575C28.1612 30.9321 28.15 30.9065 28.1366 30.8816C28.1244 30.8587 28.1104 30.8369 28.0971 30.8147C28.0826 30.7903 28.0687 30.7656 28.0529 30.7419C28.0364 30.7172 28.0181 30.6941 28.0004 30.6705C27.9855 30.6506 27.9717 30.6302 27.9558 30.6108C27.9215 30.569 27.8853 30.5288 27.8471 30.4905C27.8465 30.4899 27.846 30.4893 27.8454 30.4887L22.8452 25.4885C22.1943 24.8376 21.139 24.8376 20.4881 25.4885C19.8372 26.1394 19.8372 27.1948 20.4881 27.8456L22.643 30.0006H13.3471C13.3427 30.0006 13.3384 29.9999 13.3339 29.9999C7.80415 29.9999 3.3335 25.5292 3.3335 19.9995C3.3335 17.5722 4.30291 15.2884 5.99931 13.5905C6.64996 12.9393 6.64949 11.8841 5.99829 11.2334C5.34709 10.5828 4.29182 10.5832 3.64117 11.2344C1.32763 13.5498 0 16.6775 0 19.9993C0 27.3638 5.95306 33.3228 13.3152 33.333C13.3212 33.3331 13.327 33.3339 13.333 33.3339H22.643L20.4881 35.4888C19.8372 36.1397 19.8372 37.1951 20.4881 37.846C21.139 38.4969 22.1943 38.4969 22.8452 37.846L27.8454 32.8458C27.8458 32.8455 27.846 32.8451 27.8463 32.8448C27.8847 32.8063 27.9212 32.7658 27.9558 32.7237C27.9718 32.7042 27.9855 32.6839 28.0004 32.664Z" fill="white"/>
</svg>
