<svg width="40" height="40" viewBox="0 0 40 40" fill="none" xmlns="http://www.w3.org/2000/svg">
<path d="M21.5587 6.98756C20.8408 6.088 20.5194 4.96136 20.6497 3.8183C20.899 1.64284 22.736 0 24.9241 0C27.5044 0 29.5015 2.2476 29.2118 4.79692C28.769 8.63546 23.9158 9.95883 21.5587 6.98756Z" fill="white"/>
<path d="M2.2059 36.3663C2.3989 35.9684 14.1422 13.7746 15.4447 11.5017C12.5842 10.7559 10.1126 11.7838 8.16557 14.5116C6.08374 17.419 2.83728 14.7172 4.95515 11.7579C8.48877 6.80793 15.4852 4.58749 20.9578 7.83457C23.3597 9.2623 25.3087 10.3517 27.9972 10.3517C33.6222 10.3517 33.5672 6.02161 36.1829 6.02161C37.7581 6.02161 38.8759 7.85169 37.4551 9.83991C33.6906 15.1126 28.6102 16.701 23.6394 15.2852C22.1775 17.8074 20.7504 20.4149 19.2821 23.2508L25.1721 27.3114C27.0781 28.9789 25.5694 31.315 24.3459 32.0488C22.8707 32.9363 20.9901 33.8631 19.1612 34.767C15.2853 36.6794 15.0829 36.9121 14.0467 36.9912C11.925 37.1531 10.5119 33.9833 13.0175 32.479C14.5863 31.5364 16.7314 30.1264 18.361 29.1269C16.9174 28.2039 13.5356 26.792 13.3718 26.6991C11.2355 30.3263 9.71666 32.9649 8.59508 34.8854C8.602 34.8873 8.60776 34.8904 8.61407 34.8917C8.60901 34.9018 8.60332 34.9094 8.59889 34.9182C6.40125 38.6404 6.35892 38.9453 5.53524 39.5785C3.84874 40.8772 0.93124 38.9965 2.2059 36.3663Z" fill="white"/>
</svg>
