<svg width="40" height="40" viewBox="0 0 40 40" fill="none" xmlns="http://www.w3.org/2000/svg">
<g clip-path="url(#clip0_47_14169)">
<path d="M37.805 15.6567L34.6717 15.2583C34.4133 14.4633 34.095 13.6967 33.7233 12.9683L35.6583 10.4767C36.4417 9.46833 36.35 8.045 35.455 7.17833L32.83 4.55333C31.955 3.65 30.5317 3.56 29.5217 4.34167L27.0333 6.27667C26.305 5.905 25.5383 5.58667 24.7417 5.32833L24.3433 2.2C24.1933 0.945 23.1283 0 21.8667 0H18.1333C16.8717 0 15.8067 0.945 15.6567 2.195L15.2583 5.32833C14.4617 5.58667 13.695 5.90333 12.9667 6.27667L10.4767 4.34167C9.47 3.56 8.04667 3.65 7.17833 4.545L4.55333 7.16833C3.65 8.045 3.55833 9.46833 4.34167 10.4783L6.27667 12.9683C5.90333 13.6967 5.58667 14.4633 5.32833 15.2583L2.2 15.6567C0.945 15.8067 0 16.8717 0 18.1333V21.8667C0 23.1283 0.945 24.1933 2.195 24.3433L5.32833 24.7417C5.58667 25.5367 5.905 26.3033 6.27667 27.0317L4.34167 29.5233C3.55833 30.5317 3.65 31.955 4.545 32.8217L7.17 35.4467C8.04667 36.3483 9.46833 36.4383 10.4783 35.6567L12.9683 33.7217C13.6967 34.095 14.4633 34.4133 15.2583 34.67L15.6567 37.7967C15.8067 39.055 16.8717 40 18.1333 40H21.8667C23.1283 40 24.1933 39.055 24.3433 37.805L24.7417 34.6717C25.5367 34.4133 26.3033 34.095 27.0317 33.7233L29.5233 35.6583C30.5317 36.4417 31.955 36.35 32.8217 35.455L35.4467 32.83C36.35 31.9533 36.4417 30.5317 35.6583 29.5217L33.7233 27.0317C34.0967 26.3033 34.415 25.5367 34.6717 24.7417L37.7983 24.3433C39.0533 24.1933 39.9983 23.1283 39.9983 21.8667V18.1333C40 16.8717 39.055 15.8067 37.805 15.6567ZM20 28.3333C15.405 28.3333 11.6667 24.595 11.6667 20C11.6667 15.405 15.405 11.6667 20 11.6667C24.595 11.6667 28.3333 15.405 28.3333 20C28.3333 24.595 24.595 28.3333 20 28.3333Z" fill="white"/>
</g>
<defs>
<clipPath id="clip0_47_14169">
<rect width="40" height="40" fill="white"/>
</clipPath>
</defs>
</svg>
