<svg width="40" height="40" viewBox="0 0 40 40" fill="none" xmlns="http://www.w3.org/2000/svg">
<path d="M23.248 15.4628C24.3519 14.3423 25.6458 13.75 26.9901 13.75H31.7233L29.9241 15.5492C29.7499 15.7233 29.6118 15.93 29.5176 16.1575C29.4234 16.385 29.3749 16.6288 29.3749 16.875C29.3749 17.1213 29.4234 17.3651 29.5176 17.5926C29.6118 17.8201 29.7499 18.0268 29.9241 18.2009C30.2757 18.5525 30.7526 18.7501 31.2499 18.7501C31.4961 18.7501 31.74 18.7016 31.9675 18.6074C32.195 18.5131 32.4017 18.375 32.5758 18.2009L37.5758 13.2009C37.7499 13.0268 37.888 12.8201 37.9823 12.5926C38.0765 12.3651 38.125 12.1213 38.125 11.875C38.125 11.6288 38.0765 11.385 37.9823 11.1575C37.888 10.93 37.7499 10.7233 37.5758 10.5492L32.5758 5.54919C32.4017 5.37507 32.195 5.23696 31.9675 5.14273C31.74 5.0485 31.4961 5 31.2499 5C31.0037 5 30.7599 5.0485 30.5324 5.14273C30.3049 5.23696 30.0982 5.37507 29.9241 5.54919C29.7499 5.7233 29.6118 5.93001 29.5176 6.1575C29.4234 6.38499 29.3749 6.62881 29.3749 6.87505C29.3749 7.12128 29.4234 7.36511 29.5176 7.5926C29.6118 7.82009 29.7499 8.02679 29.9241 8.20091L31.7233 10H26.9901C24.1835 10 21.6106 11.4117 19.7593 13.7561C20.5925 14.997 21.2321 16.3574 21.6562 17.7906C22.0527 16.931 22.5908 16.1442 23.248 15.4628Z" fill="white"/>
<path d="M14.7228 24.5373C13.6188 25.6578 12.3248 26.25 10.9805 26.25H3.75C3.25272 26.25 2.77581 26.4476 2.42417 26.7992C2.07254 27.1508 1.875 27.6277 1.875 28.125C1.875 28.6223 2.07254 29.0992 2.42417 29.4508C2.77581 29.8025 3.25272 30 3.75 30H10.9805C13.7871 30 16.3601 28.5884 18.2114 26.2439C17.3781 25.0031 16.7384 23.6427 16.3143 22.2095C15.9178 23.069 15.3798 23.8559 14.7228 24.5373Z" fill="white"/>
<path d="M32.5759 21.7991C32.4017 21.625 32.195 21.4869 31.9675 21.3927C31.7401 21.2985 31.4962 21.25 31.25 21.25C31.0038 21.25 30.7599 21.2985 30.5325 21.3927C30.305 21.4869 30.0983 21.625 29.9241 21.7991C29.75 21.9733 29.6119 22.18 29.5177 22.4074C29.4235 22.6349 29.375 22.8788 29.375 23.125C29.375 23.3712 29.4235 23.6151 29.5177 23.8425C29.6119 24.07 29.75 24.2767 29.9241 24.4509L31.7234 26.25H26.9902C25.6459 26.25 24.352 25.6577 23.248 24.5373C22.0616 23.333 21.2016 21.5959 20.8266 19.6459C19.7344 13.9665 15.6855 10 10.9805 10H3.75C3.25272 10 2.77581 10.1975 2.42417 10.5492C2.07254 10.9008 1.875 11.3777 1.875 11.875C1.875 12.3723 2.07254 12.8492 2.42417 13.2008C2.77581 13.5525 3.25272 13.75 3.75 13.75H10.9805C12.3248 13.75 13.6188 14.3423 14.7227 15.4627C15.9091 16.667 16.7691 18.4041 17.1441 20.3541C18.2363 26.0334 22.2852 30 26.9902 30H31.7234L29.9241 31.7991C29.5725 32.1508 29.375 32.6277 29.375 33.125C29.375 33.6223 29.5725 34.0992 29.9241 34.4509C30.2758 34.8025 30.7527 35 31.25 35C31.7473 35 32.2242 34.8025 32.5759 34.4509L37.5759 29.4509C37.75 29.2767 37.8881 29.07 37.9823 28.8426C38.0766 28.6151 38.1251 28.3712 38.1251 28.125C38.1251 27.8788 38.0766 27.6349 37.9823 27.4074C37.8881 27.18 37.75 26.9732 37.5759 26.7991L32.5759 21.7991Z" fill="white"/>
</svg>
