<svg width="40" height="40" viewBox="0 0 40 40" fill="none" xmlns="http://www.w3.org/2000/svg">
<path d="M20 9.90295C14.4317 9.90295 9.90161 14.4323 9.90161 19.9998C9.90161 25.5672 14.4317 30.0966 20 30.0966C25.5683 30.0966 30.0983 25.5673 30.0983 19.9998C30.0983 14.4324 25.5683 9.90295 20 9.90295ZM20 26.9721C16.1548 26.9721 13.0266 23.8444 13.0266 19.9998C13.0266 16.1551 16.1549 13.0274 20 13.0274C23.845 13.0274 26.9733 16.1551 26.9733 19.9998C26.9733 23.8444 23.8451 26.9721 20 26.9721Z" fill="white"/>
<path d="M37.6809 16.1052C37.1738 15.6249 36.5426 15.0272 36.4273 14.6732C36.2978 14.2752 36.4589 13.3878 36.5884 12.6749C36.8506 11.2314 37.1477 9.5951 36.1791 8.26745C35.2039 6.93081 33.5449 6.70862 32.0813 6.5126C31.3671 6.41698 30.4784 6.29792 30.1493 6.05901C29.8316 5.82838 29.4498 5.03135 29.1429 4.39096C28.533 3.11807 27.7741 1.53393 26.1801 1.01768C24.6391 0.518697 23.1864 1.29831 21.9046 1.9862C21.2195 2.35393 20.443 2.77065 19.9999 2.77065C19.5568 2.77065 18.7803 2.35385 18.0952 1.9862C16.8135 1.29831 15.3609 0.518619 13.8197 1.01768C12.2258 1.53393 11.4668 3.11807 10.857 4.39088C10.5501 5.03127 10.1682 5.82838 9.85055 6.05893C9.52156 6.29784 8.63281 6.41682 7.91867 6.51253C6.455 6.70854 4.79602 6.93081 3.82086 8.26737C2.85219 9.59503 3.1493 11.2313 3.41148 12.6749C3.54094 13.3878 3.70211 14.2752 3.57258 14.6731C3.45734 15.0271 2.82625 15.6248 2.31906 16.1051C1.28586 17.0837 0 18.3014 0 19.9997C0 21.698 1.28586 22.9158 2.31914 23.8943C2.82625 24.3746 3.45742 24.9723 3.57266 25.3263C3.70219 25.7243 3.54109 26.6117 3.41156 27.3246C3.14937 28.7681 2.85227 30.4044 3.82094 31.7321C4.79609 33.0687 6.45508 33.2909 7.91875 33.4869C8.63289 33.5825 9.52164 33.7016 9.8507 33.9405C10.1684 34.1711 10.5502 34.9681 10.8571 35.6085C11.467 36.8814 12.2259 38.4656 13.8199 38.9818C15.323 39.4685 16.7256 38.7485 18.0954 38.0133C18.7805 37.6456 19.557 37.2289 20.0001 37.2289C20.4432 37.2289 21.2197 37.6456 21.9048 38.0133C23.1865 38.7012 24.6393 39.4809 26.1803 38.9818C27.7742 38.4656 28.5332 36.8814 29.143 35.6086C29.4499 34.9682 29.8318 34.1711 30.1495 33.9406C30.4784 33.7017 31.3672 33.5827 32.0813 33.487C33.545 33.291 35.204 33.0687 36.1791 31.7321C37.1478 30.4045 36.8507 28.7682 36.5885 27.3246C36.4591 26.6117 36.2979 25.7243 36.4274 25.3264C36.5427 24.9724 37.1738 24.3747 37.6809 23.8944C38.7141 22.9158 40 21.6981 40 19.9997C40 18.3014 38.7141 17.0837 37.6809 16.1052ZM35.532 21.6259C34.6888 22.4244 33.817 23.25 33.4559 24.3593C33.0823 25.507 33.3116 26.7692 33.5138 27.8828C33.6177 28.4548 33.8338 29.6449 33.6545 29.8907C33.4659 30.1491 32.2953 30.3059 31.6663 30.3901C30.5483 30.5399 29.2811 30.7096 28.3134 31.4121C27.3553 32.1076 26.8314 33.2011 26.3247 34.2587C26.0488 34.8345 25.5352 35.9064 25.2173 36.0094C24.944 36.0987 23.8894 35.5324 23.3828 35.2604C22.3733 34.7186 21.229 34.1044 20.0001 34.1044C18.7712 34.1044 17.627 34.7185 16.6173 35.2604C16.1108 35.5323 15.0566 36.0978 14.7829 36.0094C14.4648 35.9064 13.9513 34.8346 13.6754 34.2587C13.1687 33.2012 12.6448 32.1076 11.6867 31.4121C10.7189 30.7096 9.45172 30.5399 8.33367 30.3901C7.70477 30.3059 6.53406 30.1491 6.34555 29.8906C6.16625 29.6449 6.38242 28.4548 6.48625 27.8828C6.68844 26.7692 6.91766 25.507 6.54414 24.3594C6.18305 23.2502 5.31117 22.4245 4.46805 21.626C3.96578 21.1501 3.125 20.3539 3.125 19.9997C3.125 19.6456 3.96578 18.8493 4.46805 18.3736C5.31117 17.5751 6.18305 16.7495 6.54414 15.6402C6.91766 14.4925 6.68844 13.2303 6.48625 12.1167C6.38234 11.5447 6.16625 10.3546 6.34555 10.1088C6.53406 9.85042 7.70469 9.69362 8.33367 9.6094C9.45172 9.45963 10.7189 9.28987 11.6866 8.58737C12.6447 7.8919 13.1686 6.79838 13.6753 5.74081C13.9512 5.16502 14.4648 4.09315 14.7827 3.9901C15.0562 3.90112 16.1106 4.46713 16.6172 4.73909C17.6267 5.28088 18.771 5.8951 19.9999 5.8951C21.2288 5.8951 22.373 5.28096 23.3827 4.73909C23.8892 4.46721 24.9429 3.90135 25.2171 3.9901C25.5352 4.09307 26.0487 5.16495 26.3246 5.74081C26.8313 6.79831 27.3552 7.8919 28.3133 8.58737C29.2811 9.28995 30.5483 9.45963 31.6663 9.6094C32.2952 9.69362 33.4659 9.85042 33.6545 10.1089C33.8338 10.3546 33.6176 11.5447 33.5138 12.1167C33.3116 13.2303 33.0823 14.4925 33.4559 15.6401C33.817 16.7493 34.6888 17.575 35.532 18.3735C36.0343 18.8492 36.875 19.6455 36.875 19.9996C36.875 20.3539 36.0342 21.1501 35.532 21.6259Z" fill="white"/>
</svg>
