<svg width="40" height="40" viewBox="0 0 40 40" fill="none" xmlns="http://www.w3.org/2000/svg">
<g clip-path="url(#clip0_30_45)">
<path d="M40 7.70836C40 11.9587 36.542 15.4167 32.2916 15.4167H1.5625C0.699531 15.4167 0 14.7172 0 13.8542C0 12.9913 0.699531 12.2917 1.5625 12.2917H32.2916C34.8189 12.2917 36.875 10.2356 36.875 7.70836C36.875 5.18109 34.8189 3.125 32.2916 3.125C29.7644 3.125 27.7084 5.18109 27.7084 7.70836C27.7084 8.57133 27.0088 9.27086 26.1459 9.27086C25.2829 9.27086 24.5834 8.57133 24.5834 7.70836C24.5834 3.45797 28.0413 0 32.2916 0C36.542 0 40 3.45797 40 7.70836ZM26.1459 24.5834H1.5625C0.699531 24.5834 0 25.2829 0 26.1459C0 27.0088 0.699531 27.7084 1.5625 27.7084H26.1459C28.6731 27.7084 30.7291 29.7645 30.7291 32.2917C30.7291 34.819 28.6731 36.8751 26.1459 36.8751C23.6186 36.8751 21.5625 34.8189 21.5625 32.2916C21.5625 31.4287 20.863 30.7291 20 30.7291C19.137 30.7291 18.4375 31.4287 18.4375 32.2916C18.4375 36.542 21.8955 40 26.1459 40C30.3962 40 33.8541 36.542 33.8541 32.2916C33.8541 28.0413 30.3962 24.5834 26.1459 24.5834ZM32.2916 18.4375H1.56508C0.702109 18.4375 0.00257812 19.137 0.00257812 20C0.00257812 20.863 0.702109 21.5625 1.56508 21.5625H32.2916C33.1546 21.5625 33.8541 20.863 33.8541 20C33.8541 19.137 33.1546 18.4375 32.2916 18.4375Z" fill="white"/>
</g>
<defs>
<clipPath id="clip0_30_45">
<rect width="40" height="40" fill="white"/>
</clipPath>
</defs>
</svg>
